<mxfile host="app.diagrams.net" agent="Mozilla/5.0 (Macintosh; Intel Mac OS X 10_15_7) AppleWebKit/537.36 (KHTML, like Gecko) Chrome/128.0.0.0 Safari/537.36" version="24.7.14">
  <diagram name="第 1 页" id="eJwEFCks3a2aGoU3RCqr">
    <mxGraphModel dx="1243" dy="761" grid="1" gridSize="10" guides="1" tooltips="1" connect="1" arrows="1" fold="1" page="1" pageScale="1" pageWidth="827" pageHeight="1169" math="0" shadow="0">
      <root>
        <mxCell id="0" />
        <mxCell id="1" parent="0" />
        <mxCell id="TIzGAIU9Y43XukY-FEHA-3" value="苹果商城、谷歌应用商城" style="rounded=0;whiteSpace=wrap;html=1;" vertex="1" parent="1">
          <mxGeometry x="190" y="40" width="470" height="40" as="geometry" />
        </mxCell>
        <mxCell id="TIzGAIU9Y43XukY-FEHA-4" value="发布平台" style="text;html=1;align=center;verticalAlign=middle;resizable=0;points=[];autosize=1;strokeColor=none;fillColor=none;" vertex="1" parent="1">
          <mxGeometry x="110" y="45" width="70" height="30" as="geometry" />
        </mxCell>
        <mxCell id="TIzGAIU9Y43XukY-FEHA-6" value="打包" style="text;html=1;align=center;verticalAlign=middle;whiteSpace=wrap;rounded=0;" vertex="1" parent="1">
          <mxGeometry x="115" y="120" width="60" height="30" as="geometry" />
        </mxCell>
        <mxCell id="TIzGAIU9Y43XukY-FEHA-8" value="" style="edgeStyle=orthogonalEdgeStyle;rounded=0;orthogonalLoop=1;jettySize=auto;html=1;" edge="1" parent="1" source="TIzGAIU9Y43XukY-FEHA-7" target="TIzGAIU9Y43XukY-FEHA-3">
          <mxGeometry relative="1" as="geometry" />
        </mxCell>
        <mxCell id="TIzGAIU9Y43XukY-FEHA-7" value="通过命令打包出.ipa文件和&lt;span style=&quot;background-color: transparent; font-family: Menlo, Monaco, Consolas, &amp;quot;Courier New&amp;quot;, monospace; font-size: 0.85em; text-align: left;&quot;&gt;appbundle文件&lt;/span&gt;" style="rounded=0;whiteSpace=wrap;html=1;" vertex="1" parent="1">
          <mxGeometry x="190" y="110" width="470" height="40" as="geometry" />
        </mxCell>
        <mxCell id="TIzGAIU9Y43XukY-FEHA-9" value="编译" style="text;html=1;align=center;verticalAlign=middle;whiteSpace=wrap;rounded=0;" vertex="1" parent="1">
          <mxGeometry x="110" y="220" width="60" height="30" as="geometry" />
        </mxCell>
        <mxCell id="TIzGAIU9Y43XukY-FEHA-11" value="" style="edgeStyle=orthogonalEdgeStyle;rounded=0;orthogonalLoop=1;jettySize=auto;html=1;" edge="1" parent="1" source="TIzGAIU9Y43XukY-FEHA-10" target="TIzGAIU9Y43XukY-FEHA-7">
          <mxGeometry relative="1" as="geometry" />
        </mxCell>
        <mxCell id="TIzGAIU9Y43XukY-FEHA-10" value="lib/mian.dart" style="rounded=0;whiteSpace=wrap;html=1;" vertex="1" parent="1">
          <mxGeometry x="470" y="215" width="90" height="30" as="geometry" />
        </mxCell>
        <mxCell id="TIzGAIU9Y43XukY-FEHA-13" style="edgeStyle=orthogonalEdgeStyle;rounded=0;orthogonalLoop=1;jettySize=auto;html=1;" edge="1" parent="1" source="TIzGAIU9Y43XukY-FEHA-12" target="TIzGAIU9Y43XukY-FEHA-10">
          <mxGeometry relative="1" as="geometry" />
        </mxCell>
        <mxCell id="TIzGAIU9Y43XukY-FEHA-12" value="lib/main_alpha.dart 测试环境&lt;div&gt;lib/main_dev 开发环境&lt;/div&gt;&lt;div&gt;lib/main_prod 生产环境&lt;/div&gt;" style="rounded=0;whiteSpace=wrap;html=1;" vertex="1" parent="1">
          <mxGeometry x="190" y="200" width="210" height="60" as="geometry" />
        </mxCell>
        <mxCell id="TIzGAIU9Y43XukY-FEHA-14" value="" style="rounded=0;whiteSpace=wrap;html=1;" vertex="1" parent="1">
          <mxGeometry x="190" y="290" width="470" height="110" as="geometry" />
        </mxCell>
        <mxCell id="TIzGAIU9Y43XukY-FEHA-15" value="页面模块" style="text;html=1;align=center;verticalAlign=middle;resizable=0;points=[];autosize=1;strokeColor=none;fillColor=none;" vertex="1" parent="1">
          <mxGeometry x="100" y="330" width="70" height="30" as="geometry" />
        </mxCell>
        <mxCell id="TIzGAIU9Y43XukY-FEHA-16" value="首页" style="rounded=1;whiteSpace=wrap;html=1;" vertex="1" parent="1">
          <mxGeometry x="200" y="304" width="80" height="32" as="geometry" />
        </mxCell>
        <mxCell id="TIzGAIU9Y43XukY-FEHA-17" value="登录" style="rounded=1;whiteSpace=wrap;html=1;" vertex="1" parent="1">
          <mxGeometry x="290" y="304" width="80" height="32" as="geometry" />
        </mxCell>
        <mxCell id="TIzGAIU9Y43XukY-FEHA-18" value="购物车&lt;span style=&quot;color: rgba(0, 0, 0, 0); font-family: monospace; font-size: 0px; text-align: start; text-wrap: nowrap;&quot;&gt;%3CmxGraphModel%3E%3Croot%3E%3CmxCell%20id%3D%220%22%2F%3E%3CmxCell%20id%3D%221%22%20parent%3D%220%22%2F%3E%3CmxCell%20id%3D%222%22%20value%3D%22%E7%99%BB%E5%BD%95%22%20style%3D%22rounded%3D1%3BwhiteSpace%3Dwrap%3Bhtml%3D1%3B%22%20vertex%3D%221%22%20parent%3D%221%22%3E%3CmxGeometry%20x%3D%22290%22%20y%3D%22304%22%20width%3D%2280%22%20height%3D%2232%22%20as%3D%22geometry%22%2F%3E%3C%2FmxCell%3E%3C%2Froot%3E%3C%2FmxGraphModel%3E&lt;/span&gt;" style="rounded=1;whiteSpace=wrap;html=1;" vertex="1" parent="1">
          <mxGeometry x="385" y="304" width="80" height="32" as="geometry" />
        </mxCell>
        <mxCell id="TIzGAIU9Y43XukY-FEHA-19" value="商品详情" style="rounded=1;whiteSpace=wrap;html=1;" vertex="1" parent="1">
          <mxGeometry x="480" y="304" width="80" height="32" as="geometry" />
        </mxCell>
        <mxCell id="TIzGAIU9Y43XukY-FEHA-20" value="订单" style="rounded=1;whiteSpace=wrap;html=1;" vertex="1" parent="1">
          <mxGeometry x="570" y="304" width="80" height="32" as="geometry" />
        </mxCell>
        <mxCell id="TIzGAIU9Y43XukY-FEHA-21" value="支付模块" style="rounded=1;whiteSpace=wrap;html=1;" vertex="1" parent="1">
          <mxGeometry x="200" y="350" width="80" height="32" as="geometry" />
        </mxCell>
        <mxCell id="TIzGAIU9Y43XukY-FEHA-23" value="...." style="rounded=1;whiteSpace=wrap;html=1;" vertex="1" parent="1">
          <mxGeometry x="290" y="350" width="80" height="32" as="geometry" />
        </mxCell>
        <mxCell id="TIzGAIU9Y43XukY-FEHA-24" value="页面容器" style="text;html=1;align=center;verticalAlign=middle;resizable=0;points=[];autosize=1;strokeColor=none;fillColor=none;" vertex="1" parent="1">
          <mxGeometry x="100" y="520" width="70" height="30" as="geometry" />
        </mxCell>
        <mxCell id="TIzGAIU9Y43XukY-FEHA-37" style="edgeStyle=orthogonalEdgeStyle;rounded=0;orthogonalLoop=1;jettySize=auto;html=1;entryX=0.5;entryY=1;entryDx=0;entryDy=0;" edge="1" parent="1" source="TIzGAIU9Y43XukY-FEHA-25" target="TIzGAIU9Y43XukY-FEHA-14">
          <mxGeometry relative="1" as="geometry" />
        </mxCell>
        <mxCell id="TIzGAIU9Y43XukY-FEHA-25" value="" style="rounded=0;whiteSpace=wrap;html=1;" vertex="1" parent="1">
          <mxGeometry x="190" y="430" width="530" height="210" as="geometry" />
        </mxCell>
        <mxCell id="TIzGAIU9Y43XukY-FEHA-26" value="" style="rounded=1;whiteSpace=wrap;html=1;align=left;" vertex="1" parent="1">
          <mxGeometry x="200" y="440" width="110" height="190" as="geometry" />
        </mxCell>
        <mxCell id="TIzGAIU9Y43XukY-FEHA-27" value="公共UI组件" style="text;html=1;align=center;verticalAlign=middle;resizable=0;points=[];autosize=1;strokeColor=none;fillColor=none;" vertex="1" parent="1">
          <mxGeometry x="215" y="445" width="80" height="30" as="geometry" />
        </mxCell>
        <mxCell id="TIzGAIU9Y43XukY-FEHA-28" value="" style="rounded=0;whiteSpace=wrap;html=1;" vertex="1" parent="1">
          <mxGeometry x="210" y="470" width="90" height="150" as="geometry" />
        </mxCell>
        <mxCell id="TIzGAIU9Y43XukY-FEHA-29" value="&lt;span style=&quot;text-wrap: wrap;&quot;&gt;lib/components&lt;/span&gt;" style="text;html=1;align=center;verticalAlign=middle;resizable=0;points=[];autosize=1;strokeColor=none;fillColor=none;" vertex="1" parent="1">
          <mxGeometry x="205" y="470" width="100" height="30" as="geometry" />
        </mxCell>
        <mxCell id="TIzGAIU9Y43XukY-FEHA-30" value="app_button" style="rounded=0;whiteSpace=wrap;html=1;" vertex="1" parent="1">
          <mxGeometry x="217.5" y="500" width="75" height="25" as="geometry" />
        </mxCell>
        <mxCell id="TIzGAIU9Y43XukY-FEHA-33" value="app_dialog" style="rounded=0;whiteSpace=wrap;html=1;" vertex="1" parent="1">
          <mxGeometry x="217.5" y="532.5" width="72.5" height="27.5" as="geometry" />
        </mxCell>
        <mxCell id="TIzGAIU9Y43XukY-FEHA-34" value="empty_view" style="rounded=0;whiteSpace=wrap;html=1;" vertex="1" parent="1">
          <mxGeometry x="217.5" y="570" width="75" height="25" as="geometry" />
        </mxCell>
        <mxCell id="TIzGAIU9Y43XukY-FEHA-35" value="...&lt;div&gt;&lt;br&gt;&lt;/div&gt;" style="text;html=1;align=center;verticalAlign=middle;resizable=0;points=[];autosize=1;strokeColor=none;fillColor=none;" vertex="1" parent="1">
          <mxGeometry x="240" y="594" width="30" height="40" as="geometry" />
        </mxCell>
        <mxCell id="TIzGAIU9Y43XukY-FEHA-56" value="" style="rounded=1;whiteSpace=wrap;html=1;align=left;" vertex="1" parent="1">
          <mxGeometry x="340" y="440" width="110" height="190" as="geometry" />
        </mxCell>
        <mxCell id="TIzGAIU9Y43XukY-FEHA-57" value="Router" style="text;html=1;align=center;verticalAlign=middle;resizable=0;points=[];autosize=1;strokeColor=none;fillColor=none;" vertex="1" parent="1">
          <mxGeometry x="365" y="445" width="60" height="30" as="geometry" />
        </mxCell>
        <mxCell id="TIzGAIU9Y43XukY-FEHA-58" value="" style="rounded=0;whiteSpace=wrap;html=1;" vertex="1" parent="1">
          <mxGeometry x="350" y="470" width="90" height="150" as="geometry" />
        </mxCell>
        <mxCell id="TIzGAIU9Y43XukY-FEHA-59" value="&lt;span style=&quot;text-wrap: wrap;&quot;&gt;lib/routers&lt;/span&gt;" style="text;html=1;align=center;verticalAlign=middle;resizable=0;points=[];autosize=1;strokeColor=none;fillColor=none;" vertex="1" parent="1">
          <mxGeometry x="355" y="470" width="80" height="30" as="geometry" />
        </mxCell>
        <mxCell id="TIzGAIU9Y43XukY-FEHA-60" value="route_name" style="rounded=0;whiteSpace=wrap;html=1;" vertex="1" parent="1">
          <mxGeometry x="357.5" y="500" width="75" height="25" as="geometry" />
        </mxCell>
        <mxCell id="TIzGAIU9Y43XukY-FEHA-61" value="app_route" style="rounded=0;whiteSpace=wrap;html=1;" vertex="1" parent="1">
          <mxGeometry x="357.5" y="532.5" width="72.5" height="27.5" as="geometry" />
        </mxCell>
        <mxCell id="TIzGAIU9Y43XukY-FEHA-62" value="routers" style="rounded=0;whiteSpace=wrap;html=1;" vertex="1" parent="1">
          <mxGeometry x="357.5" y="570" width="75" height="25" as="geometry" />
        </mxCell>
        <mxCell id="TIzGAIU9Y43XukY-FEHA-63" value="...&lt;div&gt;&lt;br&gt;&lt;/div&gt;" style="text;html=1;align=center;verticalAlign=middle;resizable=0;points=[];autosize=1;strokeColor=none;fillColor=none;" vertex="1" parent="1">
          <mxGeometry x="380" y="594" width="30" height="40" as="geometry" />
        </mxCell>
        <mxCell id="TIzGAIU9Y43XukY-FEHA-66" value="" style="rounded=0;whiteSpace=wrap;html=1;" vertex="1" parent="1">
          <mxGeometry x="465" y="440" width="245" height="190" as="geometry" />
        </mxCell>
        <mxCell id="TIzGAIU9Y43XukY-FEHA-69" value="状态管理 GetX、Bloc" style="text;html=1;align=center;verticalAlign=middle;resizable=0;points=[];autosize=1;strokeColor=none;fillColor=none;" vertex="1" parent="1">
          <mxGeometry x="520" y="442" width="140" height="30" as="geometry" />
        </mxCell>
        <mxCell id="TIzGAIU9Y43XukY-FEHA-72" style="edgeStyle=orthogonalEdgeStyle;rounded=0;orthogonalLoop=1;jettySize=auto;html=1;exitX=1;exitY=0.5;exitDx=0;exitDy=0;entryX=0;entryY=0.5;entryDx=0;entryDy=0;" edge="1" parent="1" source="TIzGAIU9Y43XukY-FEHA-70" target="TIzGAIU9Y43XukY-FEHA-71">
          <mxGeometry relative="1" as="geometry" />
        </mxCell>
        <mxCell id="TIzGAIU9Y43XukY-FEHA-73" value="bind" style="edgeLabel;html=1;align=center;verticalAlign=middle;resizable=0;points=[];" vertex="1" connectable="0" parent="TIzGAIU9Y43XukY-FEHA-72">
          <mxGeometry x="0.0476" y="1" relative="1" as="geometry">
            <mxPoint y="1" as="offset" />
          </mxGeometry>
        </mxCell>
        <mxCell id="TIzGAIU9Y43XukY-FEHA-70" value="&lt;div&gt;BasicViewModel（GetxContrllert）通过状态改变绑定页面刷新&lt;br&gt;&lt;/div&gt;" style="rounded=0;whiteSpace=wrap;html=1;" vertex="1" parent="1">
          <mxGeometry x="470" y="473" width="100" height="147" as="geometry" />
        </mxCell>
        <mxCell id="TIzGAIU9Y43XukY-FEHA-71" value="BasicPage(具有页面生命周期类)" style="rounded=0;whiteSpace=wrap;html=1;" vertex="1" parent="1">
          <mxGeometry x="610" y="472" width="90" height="145" as="geometry" />
        </mxCell>
        <mxCell id="TIzGAIU9Y43XukY-FEHA-74" value="Utils" style="text;html=1;align=center;verticalAlign=middle;resizable=0;points=[];autosize=1;strokeColor=none;fillColor=none;" vertex="1" parent="1">
          <mxGeometry x="120" y="685" width="50" height="30" as="geometry" />
        </mxCell>
        <mxCell id="TIzGAIU9Y43XukY-FEHA-78" style="edgeStyle=orthogonalEdgeStyle;rounded=0;orthogonalLoop=1;jettySize=auto;html=1;entryX=0.5;entryY=1;entryDx=0;entryDy=0;" edge="1" parent="1" source="TIzGAIU9Y43XukY-FEHA-75" target="TIzGAIU9Y43XukY-FEHA-25">
          <mxGeometry relative="1" as="geometry" />
        </mxCell>
        <mxCell id="TIzGAIU9Y43XukY-FEHA-75" value="&lt;span style=&quot;color: rgba(0, 0, 0, 0); font-family: monospace; font-size: 0px; text-align: start; text-wrap: nowrap;&quot;&gt;%3CmxGraphModel%3E%3Croot%3E%3CmxCell%20id%3D%220%22%2F%3E%3CmxCell%20id%3D%221%22%20parent%3D%220%22%2F%3E%3CmxCell%20id%3D%222%22%20value%3D%22%E5%B7%A5%E5%85%B7%E7%B1%BB%22%20style%3D%22rounded%3D0%3BwhiteSpace%3Dwrap%3Bhtml%3D1%3B%22%20vertex%3D%221%22%20parent%3D%221%22%3E%3CmxGeometry%20x%3D%22290%22%20y%3D%22690%22%20width%3D%2260%22%20height%3D%2230%22%20as%3D%22geometry%22%2F%3E%3C%2FmxCell%3E%3C%2Froot%3E%3C%2FmxGraphModel%3E&lt;/span&gt;" style="rounded=0;whiteSpace=wrap;html=1;" vertex="1" parent="1">
          <mxGeometry x="194" y="680" width="516" height="50" as="geometry" />
        </mxCell>
        <mxCell id="TIzGAIU9Y43XukY-FEHA-76" style="edgeStyle=orthogonalEdgeStyle;rounded=0;orthogonalLoop=1;jettySize=auto;html=1;exitX=0.5;exitY=1;exitDx=0;exitDy=0;" edge="1" parent="1" source="TIzGAIU9Y43XukY-FEHA-75" target="TIzGAIU9Y43XukY-FEHA-75">
          <mxGeometry relative="1" as="geometry" />
        </mxCell>
        <mxCell id="TIzGAIU9Y43XukY-FEHA-79" value="第三方库" style="rounded=0;whiteSpace=wrap;html=1;" vertex="1" parent="1">
          <mxGeometry x="210" y="690" width="60" height="30" as="geometry" />
        </mxCell>
        <mxCell id="TIzGAIU9Y43XukY-FEHA-80" value="工具类" style="rounded=0;whiteSpace=wrap;html=1;" vertex="1" parent="1">
          <mxGeometry x="290" y="690" width="60" height="30" as="geometry" />
        </mxCell>
        <mxCell id="TIzGAIU9Y43XukY-FEHA-81" value="配置信息" style="rounded=0;whiteSpace=wrap;html=1;" vertex="1" parent="1">
          <mxGeometry x="363.75" y="690" width="76.25" height="30" as="geometry" />
        </mxCell>
        <mxCell id="TIzGAIU9Y43XukY-FEHA-83" value="数据持久化" style="rounded=0;whiteSpace=wrap;html=1;" vertex="1" parent="1">
          <mxGeometry x="450" y="690" width="76.25" height="30" as="geometry" />
        </mxCell>
        <mxCell id="TIzGAIU9Y43XukY-FEHA-84" value="请求封装" style="rounded=0;whiteSpace=wrap;html=1;" vertex="1" parent="1">
          <mxGeometry x="540" y="690" width="76.25" height="30" as="geometry" />
        </mxCell>
        <mxCell id="TIzGAIU9Y43XukY-FEHA-85" value="..." style="rounded=0;whiteSpace=wrap;html=1;" vertex="1" parent="1">
          <mxGeometry x="623.75" y="690" width="76.25" height="30" as="geometry" />
        </mxCell>
        <mxCell id="TIzGAIU9Y43XukY-FEHA-86" value="config" style="text;html=1;align=center;verticalAlign=middle;resizable=0;points=[];autosize=1;strokeColor=none;fillColor=none;" vertex="1" parent="1">
          <mxGeometry x="115" y="770" width="60" height="30" as="geometry" />
        </mxCell>
        <mxCell id="TIzGAIU9Y43XukY-FEHA-87" value="" style="rounded=0;whiteSpace=wrap;html=1;" vertex="1" parent="1">
          <mxGeometry x="194" y="760" width="476" height="50" as="geometry" />
        </mxCell>
        <mxCell id="TIzGAIU9Y43XukY-FEHA-90" value="app_config.dart 项目各种配置文件" style="rounded=0;whiteSpace=wrap;html=1;" vertex="1" parent="1">
          <mxGeometry x="215" y="770" width="185" height="30" as="geometry" />
        </mxCell>
        <mxCell id="TIzGAIU9Y43XukY-FEHA-91" value="app_env.dart 项目环境配置文件" style="rounded=0;whiteSpace=wrap;html=1;" vertex="1" parent="1">
          <mxGeometry x="450" y="770" width="190" height="30" as="geometry" />
        </mxCell>
        <mxCell id="TIzGAIU9Y43XukY-FEHA-92" style="edgeStyle=orthogonalEdgeStyle;rounded=0;orthogonalLoop=1;jettySize=auto;html=1;entryX=0.459;entryY=0.96;entryDx=0;entryDy=0;entryPerimeter=0;" edge="1" parent="1" source="TIzGAIU9Y43XukY-FEHA-87" target="TIzGAIU9Y43XukY-FEHA-75">
          <mxGeometry relative="1" as="geometry" />
        </mxCell>
      </root>
    </mxGraphModel>
  </diagram>
</mxfile>
